<svg width="70" height="70" viewBox="0 0 70 70" fill="none" xmlns="http://www.w3.org/2000/svg">
<g id="Group 7990">
<g id="Group 7989">
<g id="Group 7988">
<circle id="Ellipse 15" cx="34.5908" cy="34.5909" r="34.5909" transform="rotate(90 34.5908 34.5909)" fill="url(#paint0_linear_604_654)"/>
</g>
<g id="Group 7987">
<path id="Union" fill-rule="evenodd" clip-rule="evenodd" d="M27.7109 33.9361C27.7109 37.9766 24.4354 41.2522 20.3948 41.2522C16.3543 41.2522 13.0787 37.9766 13.0787 33.9361C13.0787 29.8955 16.3543 26.62 20.3948 26.62C24.4354 26.62 27.7109 29.8955 27.7109 33.9361ZM31.6743 36.7387C31.941 35.6618 32.8417 34.7968 33.9511 34.7968C35.0605 34.7968 35.9613 35.6618 36.228 36.7387C37.4819 41.8022 42.0563 45.5558 47.5074 45.5558C50.2809 45.5558 52.8274 44.5841 54.8251 42.9626V45.556C54.8251 46.7444 55.7885 47.7077 56.9769 47.7077C58.1653 47.7077 59.1287 46.7444 59.1287 45.556V34.797C59.1287 34.7064 59.1231 34.6171 59.1122 34.5294C59.1221 34.3329 59.1271 34.1351 59.1271 33.9361C59.1271 27.5187 53.9248 22.3164 47.5074 22.3164C43.5946 22.3164 40.1335 24.2504 38.0279 27.2147C37.0629 28.5732 35.6175 29.6325 33.9511 29.6325C32.2847 29.6325 30.8394 28.5732 29.8743 27.2147C27.7687 24.2504 24.3076 22.3164 20.3948 22.3164C13.9775 22.3164 8.77515 27.5187 8.77515 33.9361C8.77515 40.3535 13.9775 45.5558 20.3948 45.5558C25.8459 45.5558 30.4203 41.8022 31.6743 36.7387ZM54.8235 33.9361C54.8235 37.9766 51.548 41.2522 47.5074 41.2522C43.4668 41.2522 40.1913 37.9766 40.1913 33.9361C40.1913 29.8955 43.4668 26.62 47.5074 26.62C51.548 26.62 54.8235 29.8955 54.8235 33.9361Z" fill="white"/>
<g id="Ellipse 26">
<mask id="path-3-inside-1_604_654" fill="white">
<path d="M9.13399 31.069C9.80484 28.4345 11.3782 26.1186 13.5803 24.5243L16.1885 28.127C14.8293 29.111 13.8582 30.5404 13.4441 32.1665L9.13399 31.069Z"/>
</mask>
<path d="M9.13399 31.069C9.80484 28.4345 11.3782 26.1186 13.5803 24.5243L16.1885 28.127C14.8293 29.111 13.8582 30.5404 13.4441 32.1665L9.13399 31.069Z" stroke="#EE5A8F" stroke-width="20" mask="url(#path-3-inside-1_604_654)"/>
</g>
</g>
</g>
</g>
<defs>
<linearGradient id="paint0_linear_604_654" x1="34.5908" y1="-1.66273e-08" x2="35.1487" y2="84.8035" gradientUnits="userSpaceOnUse">
<stop stop-color="#EE5A8F"/>
<stop offset="1" stop-color="#FFB629"/>
</linearGradient>
</defs>
</svg>
